<svg viewBox="0 0 100 100">
<path class="circle" d="M96.068,30.536c-2.518-5.955-6.123-11.301-10.713-15.892c-4.591-4.59-9.938-8.195-15.892-10.713
	C63.297,1.323,56.748,0,50,0S36.703,1.323,30.536,3.931c-5.955,2.518-11.301,6.123-15.892,10.713
	c-4.591,4.591-8.195,9.937-10.714,15.892C1.322,36.704,0,43.252,0,50c0,6.748,1.322,13.296,3.931,19.463
	c2.519,5.954,6.123,11.301,10.714,15.892c4.59,4.591,9.937,8.195,15.892,10.714C36.703,98.677,43.252,100,50,100
	s13.297-1.323,19.464-3.932c5.954-2.519,11.301-6.123,15.892-10.714c4.59-4.591,8.195-9.938,10.713-15.892
	C98.678,63.296,100,56.748,100,50C100,43.252,98.678,36.704,96.068,30.536z M50,91.139C27.315,91.139,8.861,72.684,8.861,50
	S27.315,8.861,50,8.861S91.14,27.316,91.14,50S72.685,91.139,50,91.139z"/>
<path class="t" d="M50,59.241H31.773c-2.539,0-4.685-2.143-4.685-4.682l0-2.275c0-0.212,0-0.598,0-2.41h10.379c2.447,0,4.43-1.984,4.43-4.431
	s-1.983-4.43-4.43-4.43H27.091c0-1.38,0-2.933,0-4.683c0-2.447-1.983-4.431-4.43-4.431c0,0,0,0,0,0c-2.446,0-4.43,1.983-4.431,4.43
	c-0.002,14.252-0.003,15.499-0.003,15.951v2.28c0,3.625,1.433,7.035,4.035,9.606c2.57,2.539,5.947,3.936,9.511,3.936H50
	c2.447,0,4.431-1.983,4.431-4.43C54.431,61.224,52.447,59.241,50,59.241z"/>
<path class="n" d="M68.227,31.898H50c-2.447,0-4.431,1.984-4.431,4.431s1.984,4.43,4.431,4.43h18.227c2.539,0,4.685,2.145,4.685,4.685v2.275
	c0,0.453-0.001,1.697-0.003,15.954c0,2.446,1.983,4.429,4.43,4.429c0,0,0,0,0.001,0c2.446,0,4.43-1.981,4.431-4.429
	c0.002-14.252,0.003-15.496,0.003-15.949v-2.28c0-3.625-1.434-7.037-4.035-9.607C75.168,33.297,71.79,31.898,68.227,31.898z"/>
</svg>